<mxfile host="app.diagrams.net" modified="2024-01-12T17:26:35.892Z" agent="Mozilla/5.0 (Windows NT 10.0; Win64; x64) AppleWebKit/537.36 (KHTML, like Gecko) Chrome/120.0.0.0 Safari/537.36" etag="WXv1kwVm_cQoiOP-MG-k" version="22.1.18" type="google">
  <diagram name="PÃ¡gina-1" id="ry2QwG4_BVYV4VYMUFOR">
    <mxGraphModel grid="1" page="1" gridSize="10" guides="1" tooltips="1" connect="1" arrows="1" fold="1" pageScale="1" pageWidth="827" pageHeight="1169" math="0" shadow="0">
      <root>
        <mxCell id="0" />
        <mxCell id="1" parent="0" />
        <mxCell id="8cNiGGyFjjtaueNo4tWh-2" style="edgeStyle=orthogonalEdgeStyle;rounded=0;orthogonalLoop=1;jettySize=auto;html=1;endArrow=none;endFill=0;" edge="1" parent="1" source="8cNiGGyFjjtaueNo4tWh-4">
          <mxGeometry relative="1" as="geometry">
            <mxPoint x="260" y="230" as="targetPoint" />
            <Array as="points">
              <mxPoint x="370" y="280" />
              <mxPoint x="261" y="280" />
            </Array>
          </mxGeometry>
        </mxCell>
        <mxCell id="8cNiGGyFjjtaueNo4tWh-4" value="MIEMBRO" style="whiteSpace=wrap;html=1;align=center;" vertex="1" parent="1">
          <mxGeometry x="314" y="320" width="100" height="40" as="geometry" />
        </mxCell>
        <mxCell id="8cNiGGyFjjtaueNo4tWh-6" value="PILOTO" style="whiteSpace=wrap;html=1;align=center;" vertex="1" parent="1">
          <mxGeometry x="120" y="320" width="100" height="40" as="geometry" />
        </mxCell>
        <mxCell id="8cNiGGyFjjtaueNo4tWh-47" style="edgeStyle=orthogonalEdgeStyle;shape=connector;rounded=0;orthogonalLoop=1;jettySize=auto;html=1;exitX=0.5;exitY=0;exitDx=0;exitDy=0;entryX=0.5;entryY=1;entryDx=0;entryDy=0;labelBackgroundColor=default;strokeColor=default;align=center;verticalAlign=middle;fontFamily=Helvetica;fontSize=11;fontColor=default;endArrow=none;endFill=0;" edge="1" parent="1" source="8cNiGGyFjjtaueNo4tWh-7" target="8cNiGGyFjjtaueNo4tWh-46">
          <mxGeometry relative="1" as="geometry" />
        </mxCell>
        <mxCell id="8cNiGGyFjjtaueNo4tWh-62" style="edgeStyle=orthogonalEdgeStyle;shape=connector;rounded=0;orthogonalLoop=1;jettySize=auto;html=1;exitX=0.5;exitY=1;exitDx=0;exitDy=0;entryX=0;entryY=0.5;entryDx=0;entryDy=0;labelBackgroundColor=default;strokeColor=default;align=center;verticalAlign=middle;fontFamily=Helvetica;fontSize=11;fontColor=default;endArrow=none;endFill=0;" edge="1" parent="1" source="8cNiGGyFjjtaueNo4tWh-7" target="8cNiGGyFjjtaueNo4tWh-61">
          <mxGeometry relative="1" as="geometry" />
        </mxCell>
        <mxCell id="8cNiGGyFjjtaueNo4tWh-7" value="BASE" style="whiteSpace=wrap;html=1;align=center;" vertex="1" parent="1">
          <mxGeometry x="670" y="150" width="100" height="40" as="geometry" />
        </mxCell>
        <mxCell id="8cNiGGyFjjtaueNo4tWh-8" style="edgeStyle=orthogonalEdgeStyle;rounded=0;orthogonalLoop=1;jettySize=auto;html=1;exitX=0.5;exitY=1;exitDx=0;exitDy=0;endArrow=none;endFill=0;" edge="1" parent="1" source="8cNiGGyFjjtaueNo4tWh-11" target="8cNiGGyFjjtaueNo4tWh-12">
          <mxGeometry relative="1" as="geometry" />
        </mxCell>
        <mxCell id="8cNiGGyFjjtaueNo4tWh-9" style="edgeStyle=orthogonalEdgeStyle;shape=connector;rounded=0;orthogonalLoop=1;jettySize=auto;html=1;exitX=1;exitY=0.5;exitDx=0;exitDy=0;entryX=0;entryY=0.5;entryDx=0;entryDy=0;labelBackgroundColor=default;strokeColor=default;align=center;verticalAlign=middle;fontFamily=Helvetica;fontSize=11;fontColor=default;endArrow=none;endFill=0;" edge="1" parent="1" source="8cNiGGyFjjtaueNo4tWh-11" target="8cNiGGyFjjtaueNo4tWh-27">
          <mxGeometry relative="1" as="geometry" />
        </mxCell>
        <mxCell id="8cNiGGyFjjtaueNo4tWh-71" style="edgeStyle=orthogonalEdgeStyle;shape=connector;rounded=0;orthogonalLoop=1;jettySize=auto;html=1;exitX=0.75;exitY=1;exitDx=0;exitDy=0;labelBackgroundColor=default;strokeColor=default;align=center;verticalAlign=middle;fontFamily=Helvetica;fontSize=11;fontColor=default;endArrow=none;endFill=0;entryX=0.5;entryY=0;entryDx=0;entryDy=0;" edge="1" parent="1" source="8cNiGGyFjjtaueNo4tWh-11" target="8cNiGGyFjjtaueNo4tWh-72">
          <mxGeometry relative="1" as="geometry">
            <mxPoint x="500" y="280" as="targetPoint" />
          </mxGeometry>
        </mxCell>
        <mxCell id="8cNiGGyFjjtaueNo4tWh-11" value="PERSONA" style="whiteSpace=wrap;html=1;align=center;" vertex="1" parent="1">
          <mxGeometry x="210" y="110" width="100" height="40" as="geometry" />
        </mxCell>
        <mxCell id="8cNiGGyFjjtaueNo4tWh-12" value="" style="strokeWidth=2;html=1;shape=mxgraph.flowchart.merge_or_storage;whiteSpace=wrap;" vertex="1" parent="1">
          <mxGeometry x="235" y="210" width="50" height="30" as="geometry" />
        </mxCell>
        <mxCell id="8cNiGGyFjjtaueNo4tWh-13" style="edgeStyle=orthogonalEdgeStyle;rounded=0;orthogonalLoop=1;jettySize=auto;html=1;exitX=0.5;exitY=0;exitDx=0;exitDy=0;entryX=0.5;entryY=1;entryDx=0;entryDy=0;entryPerimeter=0;endArrow=none;endFill=0;" edge="1" parent="1" source="8cNiGGyFjjtaueNo4tWh-6" target="8cNiGGyFjjtaueNo4tWh-12">
          <mxGeometry relative="1" as="geometry" />
        </mxCell>
        <mxCell id="8cNiGGyFjjtaueNo4tWh-20" value="" style="edgeStyle=orthogonalEdgeStyle;rounded=0;orthogonalLoop=1;jettySize=auto;html=1;endArrow=none;endFill=0;" edge="1" parent="1" source="8cNiGGyFjjtaueNo4tWh-21" target="8cNiGGyFjjtaueNo4tWh-11">
          <mxGeometry relative="1" as="geometry" />
        </mxCell>
        <mxCell id="8cNiGGyFjjtaueNo4tWh-21" value="nombre" style="ellipse;whiteSpace=wrap;html=1;" vertex="1" parent="1">
          <mxGeometry x="310" y="20" width="70" height="30" as="geometry" />
        </mxCell>
        <mxCell id="8cNiGGyFjjtaueNo4tWh-22" style="edgeStyle=orthogonalEdgeStyle;rounded=0;orthogonalLoop=1;jettySize=auto;html=1;exitX=0.5;exitY=1;exitDx=0;exitDy=0;entryX=0;entryY=0.5;entryDx=0;entryDy=0;endArrow=none;endFill=0;" edge="1" parent="1" source="8cNiGGyFjjtaueNo4tWh-23" target="8cNiGGyFjjtaueNo4tWh-11">
          <mxGeometry relative="1" as="geometry" />
        </mxCell>
        <mxCell id="8cNiGGyFjjtaueNo4tWh-23" value="&lt;u&gt;codigo&lt;/u&gt;" style="ellipse;whiteSpace=wrap;html=1;" vertex="1" parent="1">
          <mxGeometry x="135" y="20" width="70" height="30" as="geometry" />
        </mxCell>
        <mxCell id="8cNiGGyFjjtaueNo4tWh-26" style="edgeStyle=orthogonalEdgeStyle;shape=connector;rounded=0;orthogonalLoop=1;jettySize=auto;html=1;exitX=1;exitY=0.5;exitDx=0;exitDy=0;entryX=0;entryY=0.5;entryDx=0;entryDy=0;labelBackgroundColor=default;strokeColor=default;align=center;verticalAlign=middle;fontFamily=Helvetica;fontSize=11;fontColor=default;endArrow=none;endFill=0;" edge="1" parent="1" source="8cNiGGyFjjtaueNo4tWh-27" target="8cNiGGyFjjtaueNo4tWh-7">
          <mxGeometry relative="1" as="geometry" />
        </mxCell>
        <mxCell id="8cNiGGyFjjtaueNo4tWh-27" value="regreso" style="shape=rhombus;perimeter=rhombusPerimeter;whiteSpace=wrap;html=1;align=center;fontFamily=Helvetica;fontSize=11;fontColor=default;" vertex="1" parent="1">
          <mxGeometry x="480" y="140" width="70" height="60" as="geometry" />
        </mxCell>
        <mxCell id="8cNiGGyFjjtaueNo4tWh-28" value="N" style="text;html=1;align=center;verticalAlign=middle;resizable=0;points=[];autosize=1;strokeColor=none;fillColor=none;fontSize=11;fontFamily=Helvetica;fontColor=default;" vertex="1" parent="1">
          <mxGeometry x="445" y="148" width="30" height="30" as="geometry" />
        </mxCell>
        <mxCell id="8cNiGGyFjjtaueNo4tWh-29" value="N" style="text;html=1;align=center;verticalAlign=middle;resizable=0;points=[];autosize=1;strokeColor=none;fillColor=none;fontSize=11;fontFamily=Helvetica;fontColor=default;" vertex="1" parent="1">
          <mxGeometry x="555" y="148" width="30" height="30" as="geometry" />
        </mxCell>
        <mxCell id="8cNiGGyFjjtaueNo4tWh-33" style="edgeStyle=orthogonalEdgeStyle;shape=connector;rounded=0;orthogonalLoop=1;jettySize=auto;html=1;exitX=0.5;exitY=0;exitDx=0;exitDy=0;entryX=0.5;entryY=1;entryDx=0;entryDy=0;labelBackgroundColor=default;strokeColor=default;align=center;verticalAlign=middle;fontFamily=Helvetica;fontSize=11;fontColor=default;endArrow=none;endFill=0;" edge="1" parent="1" source="8cNiGGyFjjtaueNo4tWh-32" target="8cNiGGyFjjtaueNo4tWh-6">
          <mxGeometry relative="1" as="geometry" />
        </mxCell>
        <mxCell id="8cNiGGyFjjtaueNo4tWh-32" value="horas_vuelo" style="ellipse;whiteSpace=wrap;html=1;" vertex="1" parent="1">
          <mxGeometry x="90" y="410" width="70" height="30" as="geometry" />
        </mxCell>
        <mxCell id="8cNiGGyFjjtaueNo4tWh-35" value="&lt;u&gt;num_vuelo&lt;/u&gt;" style="ellipse;whiteSpace=wrap;html=1;" vertex="1" parent="1">
          <mxGeometry x="370" y="490" width="70" height="30" as="geometry" />
        </mxCell>
        <mxCell id="8cNiGGyFjjtaueNo4tWh-46" value="nombre" style="ellipse;whiteSpace=wrap;html=1;fontStyle=4" vertex="1" parent="1">
          <mxGeometry x="685" y="80" width="70" height="30" as="geometry" />
        </mxCell>
        <mxCell id="8cNiGGyFjjtaueNo4tWh-50" style="edgeStyle=orthogonalEdgeStyle;shape=connector;rounded=0;orthogonalLoop=1;jettySize=auto;html=1;exitX=0.5;exitY=0;exitDx=0;exitDy=0;entryX=0.5;entryY=1;entryDx=0;entryDy=0;labelBackgroundColor=default;strokeColor=default;align=center;verticalAlign=middle;fontFamily=Helvetica;fontSize=11;fontColor=default;endArrow=none;endFill=0;" edge="1" parent="1" source="8cNiGGyFjjtaueNo4tWh-48" target="8cNiGGyFjjtaueNo4tWh-49">
          <mxGeometry relative="1" as="geometry" />
        </mxCell>
        <mxCell id="8cNiGGyFjjtaueNo4tWh-56" style="edgeStyle=orthogonalEdgeStyle;shape=connector;rounded=0;orthogonalLoop=1;jettySize=auto;html=1;exitX=0.5;exitY=1;exitDx=0;exitDy=0;labelBackgroundColor=default;strokeColor=default;align=center;verticalAlign=middle;fontFamily=Helvetica;fontSize=11;fontColor=default;endArrow=none;endFill=0;" edge="1" parent="1" source="8cNiGGyFjjtaueNo4tWh-48" target="8cNiGGyFjjtaueNo4tWh-55">
          <mxGeometry relative="1" as="geometry" />
        </mxCell>
        <mxCell id="8cNiGGyFjjtaueNo4tWh-66" style="edgeStyle=orthogonalEdgeStyle;shape=connector;rounded=0;orthogonalLoop=1;jettySize=auto;html=1;exitX=0.25;exitY=1;exitDx=0;exitDy=0;labelBackgroundColor=default;strokeColor=default;align=center;verticalAlign=middle;fontFamily=Helvetica;fontSize=11;fontColor=default;endArrow=none;endFill=0;entryX=1;entryY=0.5;entryDx=0;entryDy=0;" edge="1" parent="1" source="8cNiGGyFjjtaueNo4tWh-48" target="8cNiGGyFjjtaueNo4tWh-67">
          <mxGeometry relative="1" as="geometry">
            <mxPoint x="890" y="340" as="targetPoint" />
            <Array as="points">
              <mxPoint x="980" y="290" />
              <mxPoint x="920" y="290" />
              <mxPoint x="920" y="320" />
            </Array>
          </mxGeometry>
        </mxCell>
        <mxCell id="8cNiGGyFjjtaueNo4tWh-70" value="1" style="edgeLabel;html=1;align=center;verticalAlign=middle;resizable=0;points=[];fontSize=11;fontFamily=Helvetica;fontColor=default;" connectable="0" vertex="1" parent="8cNiGGyFjjtaueNo4tWh-66">
          <mxGeometry x="0.65" y="-4" relative="1" as="geometry">
            <mxPoint as="offset" />
          </mxGeometry>
        </mxCell>
        <mxCell id="8cNiGGyFjjtaueNo4tWh-48" value="AVION" style="whiteSpace=wrap;html=1;align=center;" vertex="1" parent="1">
          <mxGeometry x="955" y="205" width="100" height="40" as="geometry" />
        </mxCell>
        <mxCell id="8cNiGGyFjjtaueNo4tWh-49" value="codigo" style="ellipse;whiteSpace=wrap;html=1;fontStyle=4" vertex="1" parent="1">
          <mxGeometry x="970" y="120" width="70" height="30" as="geometry" />
        </mxCell>
        <mxCell id="8cNiGGyFjjtaueNo4tWh-51" value="TIPO AVION" style="whiteSpace=wrap;html=1;align=center;" vertex="1" parent="1">
          <mxGeometry x="955" y="420" width="100" height="40" as="geometry" />
        </mxCell>
        <mxCell id="8cNiGGyFjjtaueNo4tWh-52" value="" style="group" connectable="0" vertex="1" parent="1">
          <mxGeometry x="450" y="380" width="340" height="150" as="geometry" />
        </mxCell>
        <mxCell id="8cNiGGyFjjtaueNo4tWh-34" value="VUELO" style="whiteSpace=wrap;html=1;align=center;" vertex="1" parent="8cNiGGyFjjtaueNo4tWh-52">
          <mxGeometry x="60" width="100" height="40" as="geometry" />
        </mxCell>
        <mxCell id="8cNiGGyFjjtaueNo4tWh-41" style="edgeStyle=orthogonalEdgeStyle;shape=connector;rounded=0;orthogonalLoop=1;jettySize=auto;html=1;exitX=0.5;exitY=0;exitDx=0;exitDy=0;entryX=0;entryY=1;entryDx=0;entryDy=0;labelBackgroundColor=default;strokeColor=default;align=center;verticalAlign=middle;fontFamily=Helvetica;fontSize=11;fontColor=default;endArrow=none;endFill=0;" edge="1" parent="8cNiGGyFjjtaueNo4tWh-52" source="8cNiGGyFjjtaueNo4tWh-35" target="8cNiGGyFjjtaueNo4tWh-34">
          <mxGeometry relative="1" as="geometry">
            <Array as="points">
              <mxPoint x="-45" y="50" />
              <mxPoint x="60" y="50" />
            </Array>
          </mxGeometry>
        </mxCell>
        <mxCell id="8cNiGGyFjjtaueNo4tWh-42" style="edgeStyle=orthogonalEdgeStyle;shape=connector;rounded=0;orthogonalLoop=1;jettySize=auto;html=1;exitX=0.5;exitY=0;exitDx=0;exitDy=0;entryX=0.25;entryY=1;entryDx=0;entryDy=0;labelBackgroundColor=default;strokeColor=default;align=center;verticalAlign=middle;fontFamily=Helvetica;fontSize=11;fontColor=default;endArrow=none;endFill=0;" edge="1" parent="8cNiGGyFjjtaueNo4tWh-52" source="8cNiGGyFjjtaueNo4tWh-36" target="8cNiGGyFjjtaueNo4tWh-34">
          <mxGeometry relative="1" as="geometry" />
        </mxCell>
        <mxCell id="8cNiGGyFjjtaueNo4tWh-36" value="origen" style="ellipse;whiteSpace=wrap;html=1;" vertex="1" parent="8cNiGGyFjjtaueNo4tWh-52">
          <mxGeometry y="110" width="70" height="30" as="geometry" />
        </mxCell>
        <mxCell id="8cNiGGyFjjtaueNo4tWh-45" style="edgeStyle=orthogonalEdgeStyle;shape=connector;rounded=0;orthogonalLoop=1;jettySize=auto;html=1;exitX=0.5;exitY=0;exitDx=0;exitDy=0;entryX=1;entryY=0.75;entryDx=0;entryDy=0;labelBackgroundColor=default;strokeColor=default;align=center;verticalAlign=middle;fontFamily=Helvetica;fontSize=11;fontColor=default;endArrow=none;endFill=0;" edge="1" parent="8cNiGGyFjjtaueNo4tWh-52" source="8cNiGGyFjjtaueNo4tWh-37" target="8cNiGGyFjjtaueNo4tWh-34">
          <mxGeometry relative="1" as="geometry" />
        </mxCell>
        <mxCell id="8cNiGGyFjjtaueNo4tWh-37" value="destino" style="ellipse;whiteSpace=wrap;html=1;" vertex="1" parent="8cNiGGyFjjtaueNo4tWh-52">
          <mxGeometry x="270" y="110" width="70" height="30" as="geometry" />
        </mxCell>
        <mxCell id="8cNiGGyFjjtaueNo4tWh-43" style="edgeStyle=orthogonalEdgeStyle;shape=connector;rounded=0;orthogonalLoop=1;jettySize=auto;html=1;exitX=0.5;exitY=0;exitDx=0;exitDy=0;entryX=0.5;entryY=1;entryDx=0;entryDy=0;labelBackgroundColor=default;strokeColor=default;align=center;verticalAlign=middle;fontFamily=Helvetica;fontSize=11;fontColor=default;endArrow=none;endFill=0;" edge="1" parent="8cNiGGyFjjtaueNo4tWh-52" source="8cNiGGyFjjtaueNo4tWh-38" target="8cNiGGyFjjtaueNo4tWh-34">
          <mxGeometry relative="1" as="geometry" />
        </mxCell>
        <mxCell id="8cNiGGyFjjtaueNo4tWh-38" value="fecha_ida" style="ellipse;whiteSpace=wrap;html=1;" vertex="1" parent="8cNiGGyFjjtaueNo4tWh-52">
          <mxGeometry x="90" y="110" width="70" height="40" as="geometry" />
        </mxCell>
        <mxCell id="8cNiGGyFjjtaueNo4tWh-44" style="edgeStyle=orthogonalEdgeStyle;shape=connector;rounded=0;orthogonalLoop=1;jettySize=auto;html=1;exitX=0.5;exitY=0;exitDx=0;exitDy=0;entryX=0.75;entryY=1;entryDx=0;entryDy=0;labelBackgroundColor=default;strokeColor=default;align=center;verticalAlign=middle;fontFamily=Helvetica;fontSize=11;fontColor=default;endArrow=none;endFill=0;" edge="1" parent="8cNiGGyFjjtaueNo4tWh-52" source="8cNiGGyFjjtaueNo4tWh-39" target="8cNiGGyFjjtaueNo4tWh-34">
          <mxGeometry relative="1" as="geometry" />
        </mxCell>
        <mxCell id="8cNiGGyFjjtaueNo4tWh-39" value="fecha_llegada" style="ellipse;whiteSpace=wrap;html=1;" vertex="1" parent="8cNiGGyFjjtaueNo4tWh-52">
          <mxGeometry x="170" y="110" width="80" height="40" as="geometry" />
        </mxCell>
        <mxCell id="8cNiGGyFjjtaueNo4tWh-57" style="edgeStyle=orthogonalEdgeStyle;shape=connector;rounded=0;orthogonalLoop=1;jettySize=auto;html=1;exitX=0.5;exitY=1;exitDx=0;exitDy=0;labelBackgroundColor=default;strokeColor=default;align=center;verticalAlign=middle;fontFamily=Helvetica;fontSize=11;fontColor=default;endArrow=none;endFill=0;" edge="1" parent="1" source="8cNiGGyFjjtaueNo4tWh-55" target="8cNiGGyFjjtaueNo4tWh-51">
          <mxGeometry relative="1" as="geometry" />
        </mxCell>
        <mxCell id="8cNiGGyFjjtaueNo4tWh-55" value="tipo" style="shape=rhombus;perimeter=rhombusPerimeter;whiteSpace=wrap;html=1;align=center;fontFamily=Helvetica;fontSize=11;fontColor=default;" vertex="1" parent="1">
          <mxGeometry x="970" y="300" width="70" height="60" as="geometry" />
        </mxCell>
        <mxCell id="8cNiGGyFjjtaueNo4tWh-58" value="N" style="text;html=1;align=center;verticalAlign=middle;resizable=0;points=[];autosize=1;strokeColor=none;fillColor=none;fontSize=11;fontFamily=Helvetica;fontColor=default;" vertex="1" parent="1">
          <mxGeometry x="1005" y="268" width="30" height="30" as="geometry" />
        </mxCell>
        <mxCell id="8cNiGGyFjjtaueNo4tWh-59" value="1" style="text;html=1;align=center;verticalAlign=middle;resizable=0;points=[];autosize=1;strokeColor=none;fillColor=none;fontSize=11;fontFamily=Helvetica;fontColor=default;" vertex="1" parent="1">
          <mxGeometry x="1005" y="378" width="30" height="30" as="geometry" />
        </mxCell>
        <mxCell id="8cNiGGyFjjtaueNo4tWh-63" style="edgeStyle=orthogonalEdgeStyle;shape=connector;rounded=0;orthogonalLoop=1;jettySize=auto;html=1;exitX=1;exitY=0.5;exitDx=0;exitDy=0;entryX=0;entryY=0.5;entryDx=0;entryDy=0;labelBackgroundColor=default;strokeColor=default;align=center;verticalAlign=middle;fontFamily=Helvetica;fontSize=11;fontColor=default;endArrow=none;endFill=0;" edge="1" parent="1" source="8cNiGGyFjjtaueNo4tWh-61" target="8cNiGGyFjjtaueNo4tWh-48">
          <mxGeometry relative="1" as="geometry" />
        </mxCell>
        <mxCell id="8cNiGGyFjjtaueNo4tWh-61" value="revision" style="shape=rhombus;perimeter=rhombusPerimeter;whiteSpace=wrap;html=1;align=center;fontFamily=Helvetica;fontSize=11;fontColor=default;" vertex="1" parent="1">
          <mxGeometry x="790" y="200" width="70" height="60" as="geometry" />
        </mxCell>
        <mxCell id="8cNiGGyFjjtaueNo4tWh-64" value="1" style="text;html=1;align=center;verticalAlign=middle;resizable=0;points=[];autosize=1;strokeColor=none;fillColor=none;fontSize=11;fontFamily=Helvetica;fontColor=default;" vertex="1" parent="1">
          <mxGeometry x="745" y="208" width="30" height="30" as="geometry" />
        </mxCell>
        <mxCell id="8cNiGGyFjjtaueNo4tWh-65" value="N" style="text;html=1;align=center;verticalAlign=middle;resizable=0;points=[];autosize=1;strokeColor=none;fillColor=none;fontSize=11;fontFamily=Helvetica;fontColor=default;" vertex="1" parent="1">
          <mxGeometry x="875" y="208" width="30" height="30" as="geometry" />
        </mxCell>
        <mxCell id="8cNiGGyFjjtaueNo4tWh-67" value="utiliza" style="shape=rhombus;perimeter=rhombusPerimeter;whiteSpace=wrap;html=1;align=center;fontFamily=Helvetica;fontSize=11;fontColor=default;" vertex="1" parent="1">
          <mxGeometry x="745" y="290" width="70" height="60" as="geometry" />
        </mxCell>
        <mxCell id="8cNiGGyFjjtaueNo4tWh-68" style="edgeStyle=orthogonalEdgeStyle;shape=connector;rounded=0;orthogonalLoop=1;jettySize=auto;html=1;entryX=0;entryY=0.5;entryDx=0;entryDy=0;labelBackgroundColor=default;strokeColor=default;align=center;verticalAlign=middle;fontFamily=Helvetica;fontSize=11;fontColor=default;endArrow=none;endFill=0;" edge="1" parent="1" source="8cNiGGyFjjtaueNo4tWh-34" target="8cNiGGyFjjtaueNo4tWh-67">
          <mxGeometry relative="1" as="geometry">
            <Array as="points">
              <mxPoint x="560" y="320" />
            </Array>
          </mxGeometry>
        </mxCell>
        <mxCell id="8cNiGGyFjjtaueNo4tWh-69" value="N" style="edgeLabel;html=1;align=center;verticalAlign=middle;resizable=0;points=[];fontSize=11;fontFamily=Helvetica;fontColor=default;" connectable="0" vertex="1" parent="8cNiGGyFjjtaueNo4tWh-68">
          <mxGeometry x="0.4286" y="1" relative="1" as="geometry">
            <mxPoint as="offset" />
          </mxGeometry>
        </mxCell>
        <mxCell id="8cNiGGyFjjtaueNo4tWh-74" style="edgeStyle=orthogonalEdgeStyle;shape=connector;rounded=0;orthogonalLoop=1;jettySize=auto;html=1;exitX=0.5;exitY=1;exitDx=0;exitDy=0;entryX=0.25;entryY=0;entryDx=0;entryDy=0;labelBackgroundColor=default;strokeColor=default;align=center;verticalAlign=middle;fontFamily=Helvetica;fontSize=11;fontColor=default;endArrow=none;endFill=0;" edge="1" parent="1" source="8cNiGGyFjjtaueNo4tWh-72" target="8cNiGGyFjjtaueNo4tWh-34">
          <mxGeometry relative="1" as="geometry" />
        </mxCell>
        <mxCell id="8cNiGGyFjjtaueNo4tWh-72" value="participa" style="shape=rhombus;perimeter=rhombusPerimeter;whiteSpace=wrap;html=1;align=center;fontFamily=Helvetica;fontSize=11;fontColor=default;" vertex="1" parent="1">
          <mxGeometry x="460" y="245" width="70" height="60" as="geometry" />
        </mxCell>
        <mxCell id="8cNiGGyFjjtaueNo4tWh-75" value="N" style="text;html=1;align=center;verticalAlign=middle;resizable=0;points=[];autosize=1;strokeColor=none;fillColor=none;fontSize=11;fontFamily=Helvetica;fontColor=default;" vertex="1" parent="1">
          <mxGeometry x="465" y="218" width="30" height="30" as="geometry" />
        </mxCell>
        <mxCell id="8cNiGGyFjjtaueNo4tWh-76" value="N" style="text;html=1;align=center;verticalAlign=middle;resizable=0;points=[];autosize=1;strokeColor=none;fillColor=none;fontSize=11;fontFamily=Helvetica;fontColor=default;" vertex="1" parent="1">
          <mxGeometry x="465" y="298" width="30" height="30" as="geometry" />
        </mxCell>
      </root>
    </mxGraphModel>
  </diagram>
</mxfile>
